<svg viewBox="0 0 935 935" xmlns="http://www.w3.org/2000/svg"><path d="M726.738 325.554C676.52 234.038 579.256 172 467.5 172 304.3 172 172 304.3 172 467.5S304.3 763 467.5 763c143.382 0 262.913-102.12 289.829-237.594l50.684 6.564C777.801 692.53 636.836 814 467.5 814 276.133 814 121 658.867 121 467.5S276.133 121 467.5 121c150.471 0 278.54 95.914 326.406 229.938l-.14.057.01.008-146.275 60.92c-19.598-43.537-55.49-75.859-107.676-96.967-87.478-35.383-142.784.643-155.272 11.008-31.772 26.372-39.206 73.346-12.596 94.827 40.322 32.549 146.714-.53 211.822 56.892 38.255 33.74 55.123 87.105 32.078 134.36-16.177 33.17-67.54 87.626-168.646 71.394-100.55-16.143-175.436-129.553-175.436-135.663 0-4.072 13.76-12.138 41.28-24.195 39.268 58.976 80.11 95.165 122.524 108.566 69.644 22.004 118.694-11.46 132.597-34.668 27.872-46.528-11.326-105.248-84.11-107.402-141.17-4.179-176.767-45.135-176.767-112.733 0-67.598 87.429-147.088 196.58-124.48 72.767 15.07 125.959 48.37 159.574 99.899l63.285-27.207zm-609.576-167.61l34.722 34.722C87.807 266.189 49 362.313 49 467.5 49 698.631 236.369 886 467.5 886S886 698.631 886 467.5 698.631 49 467.5 49c-78.243 0-151.47 21.472-214.112 58.844l-35.623-35.622C290.013 26.48 375.665 0 467.5 0 725.693 0 935 209.307 935 467.5S725.693 935 467.5 935 0 725.693 0 467.5c0-118.72 44.253-227.103 117.162-309.556z" fill="#fff" fill-rule="evenodd"/></svg>
